<?xml version="1.0" standalone="no"?><!DOCTYPE svg PUBLIC "-//W3C//DTD SVG 1.1//EN" "http://www.w3.org/Graphics/SVG/1.1/DTD/svg11.dtd"><svg class="icon" width="64px" height="64.00px" viewBox="0 0 1024 1024" version="1.1" xmlns="http://www.w3.org/2000/svg"><path fill="#333333" d="M510.57 921H291.74c-75.02 0-136.05-61.03-136.05-136.05v-545.9c0-75.02 61.04-136.05 136.05-136.05H729.4c75.02 0 136.05 61.04 136.05 136.05V362.2c0 19.27-15.62 34.89-34.89 34.89-19.28 0-34.89-15.62-34.89-34.89V239.05c0-36.54-29.73-66.27-66.27-66.27H291.74c-36.54 0-66.27 29.73-66.27 66.27v545.89c0 36.54 29.73 66.27 66.27 66.27h218.83c19.28 0 34.89 15.62 34.89 34.89 0 19.28-15.61 34.9-34.89 34.9z"  /><path fill="#333333" d="M849.76 507.88L678.68 856.53a67.728 67.728 0 0 1-40.43 34.76l-16.14 5.09a7.052 7.052 0 0 1-8.96-5.01l-3.88-15.51a67.744 67.744 0 0 1 4.9-46.28l172.95-352.44c8.49-17.3 29.4-24.44 46.7-15.95 17.29 8.48 24.43 29.39 15.94 46.69zM484.62 393.3H326.84c-19.28 0-34.89-15.62-34.89-34.89 0-19.27 15.62-34.89 34.89-34.89h157.77c19.28 0 34.89 15.62 34.89 34.89 0.01 19.27-15.61 34.89-34.88 34.89zM547.55 517.71H326.84c-19.28 0-34.89-15.62-34.89-34.89 0-19.27 15.62-34.89 34.89-34.89h220.71c19.28 0 34.89 15.62 34.89 34.89 0.01 19.27-15.61 34.89-34.89 34.89z"  /></svg>