<?xml version="1.0" standalone="no"?><!DOCTYPE svg PUBLIC "-//W3C//DTD SVG 1.1//EN" "http://www.w3.org/Graphics/SVG/1.1/DTD/svg11.dtd"><svg class="icon" width="64px" height="64.00px" viewBox="0 0 1024 1024" version="1.1" xmlns="http://www.w3.org/2000/svg"><path fill="#333333" d="M748 919.41H276.92c-55.14 0-100-47.53-100-105.96V286.62c0-58.43 44.86-105.96 100-105.96H748c55.14 0 100 47.53 100 105.96v526.83c0 58.43-44.86 105.96-100 105.96zM276.92 248.67c-19.75 0-35.82 17.02-35.82 37.95v526.83c0 20.93 16.07 37.95 35.82 37.95H748c19.75 0 35.82-17.02 35.82-37.95V286.62c0-20.93-16.07-37.95-35.82-37.95H276.92z"  /><path fill="#333333" d="M335.56 310.77c-18.78 0-34-15.23-34-34V137c0-18.78 15.23-34 34-34 18.78 0 34 15.23 34 34v139.76c0 18.78-15.22 34.01-34 34.01zM689.36 310.77c-18.78 0-34-15.23-34-34V137c0-18.78 15.23-34 34-34 18.78 0 34 15.23 34 34v139.76c0.01 18.78-15.22 34.01-34 34.01zM622.89 493.54H323.53c-18.78 0-34-15.23-34-34 0-18.78 15.23-34 34-34h299.36c18.78 0 34 15.23 34 34s-15.22 34-34 34z"  /><path fill="#333333" d="M523.1 647.77H323.53c-18.78 0-34-15.23-34-34s15.23-34 34-34H523.1c18.78 0 34 15.23 34 34s-15.22 34-34 34z"  /></svg>