<?xml version="1.0" standalone="no"?><!DOCTYPE svg PUBLIC "-//W3C//DTD SVG 1.1//EN" "http://www.w3.org/Graphics/SVG/1.1/DTD/svg11.dtd"><svg class="icon" width="64px" height="64.00px" viewBox="0 0 1024 1024" version="1.1" xmlns="http://www.w3.org/2000/svg"><path fill="#333333" d="M511.99 920.99c-225.52 0-408.99-183.48-408.99-409S286.47 103 511.99 103 921 286.47 921 511.99s-183.48 409-409.01 409z m0-750.13c-188.1 0-341.13 153.03-341.13 341.13 0 188.11 153.03 341.14 341.13 341.14 188.11 0 341.14-153.03 341.14-341.14 0.01-188.1-153.02-341.13-341.14-341.13z"  /><path fill="#333333" d="M464.39 650.33c-14.29 0-28.59-3.76-41.62-11.28-26.06-15.04-41.61-41.99-41.61-72.08V457.02c0-30.09 15.55-57.03 41.61-72.08 26.07-15.04 57.16-15.04 83.23 0l95.22 54.98c26.06 15.04 41.61 41.98 41.61 72.07 0 30.09-15.55 57.03-41.61 72.08L506 639.05c-13.03 7.52-27.32 11.28-41.61 11.28z m0.04-208.75c-3.31 0-6.03 1.17-7.73 2.14-2.86 1.66-7.68 5.59-7.68 13.3v109.95c0 7.72 4.82 11.65 7.68 13.3 2.88 1.66 8.68 3.85 15.36 0l95.22-54.98c6.68-3.85 7.68-9.99 7.68-13.3 0-3.31-0.99-9.44-7.68-13.3l-95.22-54.98c-2.73-1.57-5.33-2.13-7.63-2.13z"  /></svg>