<?xml version="1.0" standalone="no"?><!DOCTYPE svg PUBLIC "-//W3C//DTD SVG 1.1//EN" "http://www.w3.org/Graphics/SVG/1.1/DTD/svg11.dtd"><svg class="icon" width="64px" height="64.00px" viewBox="0 0 1024 1024" version="1.1" xmlns="http://www.w3.org/2000/svg"><path fill="#333333" d="M730.09 920.12H292.91c-74.94 0-135.91-60.96-135.91-135.91v-545.3C157 163.97 217.97 103 292.91 103h437.18C805.03 103 866 163.97 866 238.91v545.3c0 74.95-60.97 135.91-135.91 135.91zM292.91 172.71c-36.5 0-66.2 29.69-66.2 66.2v545.3c0 36.5 29.69 66.2 66.2 66.2h437.18c36.5 0 66.2-29.69 66.2-66.2v-545.3c0-36.5-29.69-66.2-66.2-66.2H292.91z"  /><path fill="#333333" d="M483.49 393H325.88c-19.25 0-34.86-15.6-34.86-34.86 0-19.25 15.61-34.86 34.86-34.86h157.61c19.25 0 34.86 15.61 34.86 34.86 0 19.26-15.61 34.86-34.86 34.86zM571.69 547.26H329.34c-21.16 0-38.31-15.6-38.31-34.86 0-19.25 17.16-34.86 38.31-34.86h242.35c21.16 0 38.31 15.6 38.31 34.86 0 19.26-17.16 34.86-38.31 34.86z"  /></svg>