<?xml version="1.0" standalone="no"?><!DOCTYPE svg PUBLIC "-//W3C//DTD SVG 1.1//EN" "http://www.w3.org/Graphics/SVG/1.1/DTD/svg11.dtd"><svg class="icon" width="64px" height="64.00px" viewBox="0 0 1024 1024" version="1.1" xmlns="http://www.w3.org/2000/svg"><path fill="#333333" d="M541.43 921H292.61c-75.02 0-136.06-61.03-136.06-136.05V239.06c0-75.02 61.04-136.06 136.06-136.06h437.66c75.03 0 136.06 61.04 136.06 136.06V596.1C866.32 775.25 720.58 921 541.43 921zM292.61 172.79c-36.54 0-66.27 29.73-66.27 66.27v545.89c0 36.54 29.73 66.26 66.27 66.26h248.82c140.67 0 255.11-114.44 255.11-255.11V239.06c0-36.54-29.73-66.27-66.27-66.27H292.61z"  /><path fill="#333333" d="M477.78 591.28c-1.83 0-3.67-0.14-5.51-0.44-9.53-1.52-18-6.93-23.41-14.93l-47.06-69.7c-10.78-15.97-6.58-37.66 9.39-48.45 15.98-10.79 37.65-6.57 48.45 9.39l26.19 38.8 84.93-65.9c15.22-11.81 37.13-9.04 48.96 6.17 11.81 15.23 9.05 37.15-6.18 48.96l-114.37 88.76a34.83 34.83 0 0 1-21.39 7.34z"  /></svg>