<?xml version="1.0" standalone="no"?><!DOCTYPE svg PUBLIC "-//W3C//DTD SVG 1.1//EN" "http://www.w3.org/Graphics/SVG/1.1/DTD/svg11.dtd"><svg class="icon" width="64px" height="64.00px" viewBox="0 0 1024 1024" version="1.1" xmlns="http://www.w3.org/2000/svg"><path fill="#333333" d="M512.59 923.87c-25.1 0-49.24-10.64-66.22-29.22C345.02 783.76 175 577.3 175 440.59 175 254.45 326.44 103 512.59 103s337.59 151.45 337.59 337.59c0 136.71-170.02 343.16-271.37 454.05-16.98 18.59-41.12 29.23-66.22 29.23z m0-751.68c-147.99 0-268.4 120.41-268.4 268.4 0 81.57 94.68 233.85 253.26 407.38 5.33 5.83 11.77 6.7 15.14 6.7 3.37 0 9.81-0.87 15.14-6.7C686.3 674.45 780.98 522.16 780.98 440.59c0-147.99-120.4-268.4-268.39-268.4z"  /><path fill="#333333" d="M512.59 639.46c-91.89 0-166.64-74.76-166.64-166.65s74.76-166.64 166.64-166.64 166.64 74.76 166.64 166.64c0 91.89-74.75 166.65-166.64 166.65z m0-264.11c-53.73 0-97.45 43.72-97.45 97.45 0 53.74 43.72 97.46 97.45 97.46s97.45-43.72 97.45-97.46c0-53.73-43.72-97.45-97.45-97.45z"  /></svg>