<?xml version="1.0" standalone="no"?><!DOCTYPE svg PUBLIC "-//W3C//DTD SVG 1.1//EN" "http://www.w3.org/Graphics/SVG/1.1/DTD/svg11.dtd"><svg class="icon" width="64px" height="64.00px" viewBox="0 0 1024 1024" version="1.1" xmlns="http://www.w3.org/2000/svg"><path fill="#333333" d="M254.83 787.64c-0.38 0 21.24-0.01 20.86-0.02l-84.85-2.76-5.23-1.93c-10.09-3.74-35.01-13.99-48.61-28.54-19-20.26-29.41-46.87-29.31-74.87V262.58c0-28.18 10.45-54.76 29.42-74.86 18.54-19.95 44.95-31.59 72.27-31.72h341.57c97.06 0 113.38 44.26 121.79 89.6l1.62 9.06c5.27 30.02 12.42 70.69 40.59 90.66l140.24 38.66 4.11 2.5c25.76 15.69 41.41 30.59 50.74 48.34 9.62 18.25 10.95 37.9 10.95 56.41v188.42c0 28.18-10.45 54.77-29.43 74.87-18.55 19.95-44.95 31.58-72.26 31.72h-26.11c-18.97 0-34.36-15.38-34.36-34.36s15.38-34.36 34.36-34.36h25.93c8.24-0.04 16.42-3.68 22.28-9.99 7.07-7.49 10.86-17.32 10.86-27.89V491.22c0-8.67-0.35-19.29-3.04-24.39-1.96-3.74-7.36-9.99-21.76-19.22l-140.58-38.76-4.1-2.5c-57.71-35.13-69.23-100.66-76.11-139.81l-1.5-8.43c-5.13-27.66-6.2-33.41-54.23-33.41H209.55c-8.25 0.04-16.42 3.67-22.28 9.98-7.07 7.49-10.86 17.33-10.86 27.89v417.06c-0.04 10.52 3.79 20.34 10.76 27.79 2.32 2.02 10.43 6.13 17.49 9.13l51.27 2.38c18.96 0.62 33.84 16.49 33.22 35.46-0.6 18.59-15.86 33.25-34.32 33.25z"  /><path fill="#333333" d="M602.61 786.23H443.26c-18.97 0-34.36-15.38-34.36-34.36s15.38-34.36 34.36-34.36H602.6c18.97 0 34.36 15.38 34.36 34.36s-15.38 34.36-34.35 34.36zM490.66 547.18h-0.1l-99.73-0.29c-18.97-0.06-34.31-15.48-34.26-34.46 0.06-18.94 15.43-34.26 34.36-34.26h0.1l99.73 0.29c18.97 0.06 34.31 15.48 34.26 34.46-0.06 18.95-15.43 34.26-34.36 34.26z"  /><path fill="#333333" d="M390.93 547.18c-18.97 0-34.36-15.38-34.36-34.36V380.7c0-18.97 15.38-34.36 34.36-34.36 18.97 0 34.36 15.38 34.36 34.36v132.13c0 18.97-15.38 34.35-34.36 34.35zM353.04 869.73c-67.44 0-122.31-54.87-122.31-122.31S285.59 625.1 353.04 625.1s122.31 54.87 122.31 122.31-54.87 122.32-122.31 122.32z m0-175.92c-29.56 0-53.6 24.04-53.6 53.6 0 29.56 24.04 53.6 53.6 53.6 29.56 0 53.6-24.04 53.6-53.6 0-29.55-24.04-53.6-53.6-53.6z"  /><path fill="#333333" d="M693.14 869.73c-67.44 0-122.31-54.87-122.31-122.31S625.69 625.1 693.14 625.1s122.31 54.87 122.31 122.31-54.87 122.32-122.31 122.32z m0-175.92c-29.55 0-53.6 24.04-53.6 53.6 0 29.56 24.04 53.6 53.6 53.6 29.56 0 53.6-24.04 53.6-53.6 0-29.55-24.05-53.6-53.6-53.6z"  /></svg>