<?xml version="1.0" standalone="no"?><!DOCTYPE svg PUBLIC "-//W3C//DTD SVG 1.1//EN" "http://www.w3.org/Graphics/SVG/1.1/DTD/svg11.dtd"><svg class="icon" width="64px" height="64.00px" viewBox="0 0 1024 1024" version="1.1" xmlns="http://www.w3.org/2000/svg"><path fill="#333333" d="M495.73 636.01c-25 0-49.71-9.31-68.43-28.03-38.28-38.28-37.22-101.64 2.37-141.22 15.48-15.49 56.72-46.16 98.95-70.72 47.97-27.89 101.16-52.24 132.01-21.38 30.84 30.84 6.5 84.04-21.39 132-24.55 42.22-55.23 83.47-70.72 98.95-20.22 20.23-46.66 30.4-72.79 30.4z m104.49-200.94c-37.83 16.66-102.05 58.96-122.66 79.57-13.18 13.19-14.25 33.58-2.36 45.46 11.87 11.88 32.27 10.81 45.46-2.37 20.6-20.61 62.9-84.83 79.56-122.66z m23.29-6.96h0.11-0.11z"  /><path fill="#333333" d="M512.87 919.26c-225.04 0-408.13-183.09-408.13-408.13S287.83 103 512.87 103 921 286.08 921 511.13 737.91 919.26 512.87 919.26z m0-748.54c-187.7 0-340.41 152.71-340.41 340.41 0 187.71 152.71 340.41 340.41 340.41 187.71 0 340.41-152.71 340.41-340.41 0-187.71-152.7-340.41-340.41-340.41z"  /></svg>