<?xml version="1.0" standalone="no"?><!DOCTYPE svg PUBLIC "-//W3C//DTD SVG 1.1//EN" "http://www.w3.org/Graphics/SVG/1.1/DTD/svg11.dtd"><svg class="icon" width="64px" height="64.00px" viewBox="0 0 1024 1024" version="1.1" xmlns="http://www.w3.org/2000/svg"><path fill="#333333" d="M510.37 918.24c-192.24 0-348.63-156.4-348.63-348.63V260.02c0-86.58 70.44-157.02 157.02-157.02h383.23C788.56 103 859 173.44 859 260.02v309.59c0 192.23-156.4 348.63-348.63 348.63zM318.75 171.11c-49.02 0-88.91 39.89-88.91 88.91v309.59c0 154.68 125.84 280.52 280.52 280.52s280.52-125.84 280.52-280.52V260.02c0-49.02-39.89-88.91-88.91-88.91H318.75z"  /><path fill="#333333" d="M612.77 401.64h-292.3c-18.81 0-34.06-15.24-34.06-34.06s15.24-34.06 34.06-34.06h292.3c18.81 0 34.06 15.24 34.06 34.06s-15.25 34.06-34.06 34.06zM502.5 573.25H320.47c-18.81 0-34.06-15.24-34.06-34.06s15.24-34.06 34.06-34.06H502.5c18.81 0 34.06 15.24 34.06 34.06s-15.25 34.06-34.06 34.06z"  /></svg>