<?xml version="1.0" standalone="no"?><!DOCTYPE svg PUBLIC "-//W3C//DTD SVG 1.1//EN" "http://www.w3.org/Graphics/SVG/1.1/DTD/svg11.dtd"><svg class="icon" width="64px" height="64.00px" viewBox="0 0 1024 1024" version="1.1" xmlns="http://www.w3.org/2000/svg"><path fill="#333333" d="M512 920.99c-225.52 0-409-183.47-409-409s183.47-409 409-409 409 183.47 409 409-183.48 409-409 409z m0-750.13c-188.1 0-341.13 153.03-341.13 341.13S323.9 853.13 512 853.13c188.11 0 341.14-153.03 341.14-341.13S700.1 170.86 512 170.86z"  /><path fill="#333333" d="M512 594.72c-79.55 0-144.27-64.73-144.27-144.27S432.44 306.17 512 306.17s144.28 64.73 144.28 144.27S591.55 594.72 512 594.72z m0-220.69c-42.13 0-76.41 34.27-76.41 76.41s34.28 76.41 76.41 76.41c42.14 0 76.42-34.27 76.42-76.41s-34.28-76.41-76.42-76.41zM711.16 796.46c-15.41-58.74-100.96-103.03-198.99-103.03-94.4 0-177.32 40.82-197.16 97.07l-64-22.58c29.57-83.81 136.96-142.35 261.16-142.35 129.97 0 241.27 64.63 264.63 153.66l-65.64 17.23z"  /></svg>