<?xml version="1.0" standalone="no"?><!DOCTYPE svg PUBLIC "-//W3C//DTD SVG 1.1//EN" "http://www.w3.org/Graphics/SVG/1.1/DTD/svg11.dtd"><svg class="icon" width="64px" height="64.00px" viewBox="0 0 1024 1024" version="1.1" xmlns="http://www.w3.org/2000/svg"><path fill="#333333" d="M748.85 706.64H441.04c-41.83 0-77.56-29.89-84.95-71.06L280.43 214.1c-1.55-8.68-9.09-14.98-17.91-14.98H137.06c-18.82 0-34.06-15.25-34.06-34.06S118.25 131 137.06 131h125.47c41.84 0 77.57 29.89 84.96 71.07l8.26 46.05h478.87c27.55 0 52.8 12.68 69.25 34.79 16.44 22.11 21.34 49.93 13.42 76.33l-85.77 285.9c-11.04 36.79-44.27 61.5-82.67 61.5z m-380.87-390.4l55.16 307.3a18.162 18.162 0 0 0 17.9 14.98h307.81c8.09 0 15.1-5.21 17.43-12.96l85.77-285.9c2.28-7.62-0.8-13.35-2.84-16.09s-6.64-7.33-14.59-7.33H367.98z"  /><path fill="#333333" d="M439.62 841.75m-52.05 0a52.05 52.05 0 1 0 104.1 0 52.05 52.05 0 1 0-104.1 0Z"  /><path fill="#333333" d="M725.91 841.75m-52.05 0a52.05 52.05 0 1 0 104.1 0 52.05 52.05 0 1 0-104.1 0Z"  /></svg>