<?xml version="1.0" standalone="no"?><!DOCTYPE svg PUBLIC "-//W3C//DTD SVG 1.1//EN" "http://www.w3.org/Graphics/SVG/1.1/DTD/svg11.dtd"><svg class="icon" width="64px" height="64.00px" viewBox="0 0 1024 1024" version="1.1" xmlns="http://www.w3.org/2000/svg"><path fill="#333333" d="M522.04 893c-30.74 0-59.26-11.59-80.7-32.68l-303.1-298.04c-37-36.4-44.72-93.2-18.78-138.13l141-244.21c20.27-35.12 58.06-56.94 98.61-56.94h303.81c40.55 0 78.34 21.82 98.62 56.94l142.24 246.4c25.2 43.6 18.43 99.44-16.45 135.78L603.33 857.98c-21.26 22.13-49.85 34.56-80.51 35.02h-0.78zM359.07 192.54c-15.79 0-30.49 8.49-38.38 22.17L179.68 458.92c-10.1 17.49-7.09 39.61 7.32 53.78l303.1 298.05c8.47 8.32 19.4 12.71 31.66 12.71h0.33c11.66-0.17 22.81-5.03 31.09-13.65l283.95-295.83c13.57-14.15 16.21-35.89 6.41-52.86L701.28 214.71c-7.9-13.67-22.6-22.17-38.39-22.17H359.07z"  /><path fill="#333333" d="M621.53 496.41H401.6c-19.21 0-34.77-15.57-34.77-34.77s15.56-34.77 34.77-34.77h219.93c19.21 0 34.77 15.57 34.77 34.77s-15.56 34.77-34.77 34.77z"  /></svg>