<?xml version="1.0" standalone="no"?><!DOCTYPE svg PUBLIC "-//W3C//DTD SVG 1.1//EN" "http://www.w3.org/Graphics/SVG/1.1/DTD/svg11.dtd"><svg class="icon" width="64px" height="64.00px" viewBox="0 0 1024 1024" version="1.1" xmlns="http://www.w3.org/2000/svg"><path fill="#333333" d="M512.48 386.88c-156.14 0-314.21-48.76-314.21-141.95 0-93.18 158.07-141.93 314.21-141.93s314.21 48.75 314.21 141.93c-0.01 93.19-158.08 141.95-314.21 141.95z m0-214.52c-161.55 0-244.84 50.87-244.84 72.57s83.3 72.58 244.84 72.58 244.84-50.88 244.84-72.58-83.3-72.57-244.84-72.57zM512.48 921c-156.14 0-314.21-48.75-314.21-141.93s158.07-141.95 314.21-141.95 314.21 48.76 314.21 141.95S668.61 921 512.48 921z m0-214.52c-161.55 0-244.84 50.87-244.84 72.58 0 21.7 83.3 72.57 244.84 72.57s244.84-50.87 244.84-72.57c0-21.71-83.3-72.58-244.84-72.58zM516.64 581c-205.14 0-295.52-73.56-299.27-76.7-14.7-12.28-16.65-34.15-4.37-48.85 12.22-14.62 33.94-16.62 48.63-4.56 1.9 1.5 78.97 60.75 255.01 60.75 175.79 0 244.73-59.05 245.41-59.64 14.21-12.57 36.07-11.49 48.83 2.56 12.73 14.07 11.98 35.61-1.92 48.53-3.43 3.17-86.16 77.91-292.32 77.91z"  /><path fill="#333333" d="M792 801.88c-19.16 0-34.68-15.52-34.68-34.68V233.08c0-19.15 15.52-34.68 34.68-34.68s34.68 15.53 34.68 34.68V767.2c0 19.16-15.52 34.68-34.68 34.68zM232.95 801.88c-19.16 0-34.68-15.52-34.68-34.68V233.08c0-19.15 15.52-34.68 34.68-34.68s34.68 15.53 34.68 34.68V767.2c0 19.16-15.52 34.68-34.68 34.68z"  /></svg>