<?xml version="1.0" standalone="no"?><!DOCTYPE svg PUBLIC "-//W3C//DTD SVG 1.1//EN" "http://www.w3.org/Graphics/SVG/1.1/DTD/svg11.dtd"><svg class="icon" width="64px" height="64.00px" viewBox="0 0 1024 1024" version="1.1" xmlns="http://www.w3.org/2000/svg"><path fill="#333333" d="M512 921c-225.52 0-409-183.48-409-409s183.48-409 409-409 409 183.48 409 409-183.48 409-409 409z m0-750.14c-188.1 0-341.14 153.03-341.14 341.14S323.9 853.14 512 853.14 853.14 700.1 853.14 512 700.1 170.86 512 170.86z"  /><path fill="#333333" d="M512.56 434.42c-8.52 0-17.03-3.18-23.63-9.58l-74.19-71.99c-13.45-13.06-13.77-34.54-0.73-47.98 13.08-13.46 34.54-13.77 47.98-0.73l74.19 71.99c13.45 13.06 13.77 34.54 0.73 47.98-6.65 6.86-15.5 10.31-24.35 10.31z"  /><path fill="#333333" d="M511.45 434.42c-8.85 0-17.69-3.45-24.34-10.31-13.06-13.44-12.74-34.93 0.72-47.97L562 304.15c13.42-13.07 34.91-12.75 47.97 0.72 13.06 13.44 12.74 34.93-0.72 47.97l-74.18 71.99c-6.58 6.41-15.11 9.59-23.62 9.59z"  /><path fill="#333333" d="M644.91 500.76H379.1c-18.74 0-33.93-15.19-33.93-33.93 0-18.74 15.19-33.93 33.93-33.93h265.81c18.74 0 33.93 15.19 33.93 33.93 0 18.74-15.19 33.93-33.93 33.93zM630.47 618.2H393.53c-18.74 0-33.93-15.19-33.93-33.93 0-18.74 15.19-33.93 33.93-33.93h236.95c18.74 0 33.93 15.19 33.93 33.93-0.01 18.75-15.19 33.93-33.94 33.93z"  /><path fill="#333333" d="M512 729.44c-18.74 0-33.93-15.19-33.93-33.93V403.24c0-18.74 15.19-33.93 33.93-33.93 18.74 0 33.93 15.19 33.93 33.93v292.27c0 18.74-15.19 33.93-33.93 33.93z"  /></svg>