<?xml version="1.0" standalone="no"?><!DOCTYPE svg PUBLIC "-//W3C//DTD SVG 1.1//EN" "http://www.w3.org/Graphics/SVG/1.1/DTD/svg11.dtd"><svg class="icon" width="64px" height="64.00px" viewBox="0 0 1024 1024" version="1.1" xmlns="http://www.w3.org/2000/svg"><path fill="#333333" d="M733.22 884.89H294.49c-58.48 0-106.05-47.57-106.05-106.05V384.38c0-19.01 15.41-34.43 34.43-34.43h581.98c19.02 0 34.43 15.41 34.43 34.43v394.45c-0.01 58.48-47.58 106.06-106.06 106.06zM257.29 418.81v360.03c0 20.51 16.69 37.19 37.19 37.19h438.74c20.51 0 37.19-16.69 37.19-37.19V418.81H257.29z"  /><path fill="#333333" d="M811.24 418.81H216.47c-60.52 0-109.76-49.24-109.76-109.76v-64.3c0-60.52 49.24-109.75 109.76-109.75h594.78C871.76 135 921 184.24 921 244.75v64.3c0 60.53-49.24 109.76-109.76 109.76zM216.47 203.85c-22.56 0-40.9 18.35-40.9 40.9v64.3c0 22.55 18.35 40.9 40.9 40.9h594.78c22.56 0 40.9-18.35 40.9-40.9v-64.3c0-22.55-18.35-40.9-40.9-40.9H216.47zM639.63 660.4H388.08c-19.02 0-34.43-15.41-34.43-34.43s15.41-34.43 34.43-34.43h251.54c19.02 0 34.43 15.41 34.43 34.43s-15.41 34.43-34.42 34.43zM639.63 542.13H388.08c-19.02 0-34.43-15.41-34.43-34.43s15.41-34.43 34.43-34.43h251.54c19.02 0 34.43 15.41 34.43 34.43s-15.41 34.43-34.42 34.43z"  /><path fill="#333333" d="M639.63 542.13H388.08c-19.02 0-34.43-15.41-34.43-34.43s15.41-34.43 34.43-34.43h251.54c19.02 0 34.43 15.41 34.43 34.43s-15.41 34.43-34.42 34.43z"  /></svg>