<?xml version="1.0" standalone="no"?><!DOCTYPE svg PUBLIC "-//W3C//DTD SVG 1.1//EN" "http://www.w3.org/Graphics/SVG/1.1/DTD/svg11.dtd"><svg class="icon" width="64px" height="64.00px" viewBox="0 0 1024 1024" version="1.1" xmlns="http://www.w3.org/2000/svg"><path fill="#333333" d="M770.8 707.95v22.67c0 32.46-26.41 58.87-58.87 58.87H228.65c-32.46 0-58.87-26.41-58.87-58.87V294.65c0-32.46 26.41-58.87 58.87-58.87h483.28c32.46 0 58.87 26.41 58.87 58.87v22.67h64.5c0.76 0 1.52 0.04 2.28 0.06v-22.73c0-69.28-56.37-125.65-125.65-125.65H228.65C159.37 169 103 225.37 103 294.65v435.98c0 69.28 56.37 125.65 125.65 125.65h483.28c69.28 0 125.65-56.37 125.65-125.65V707.9c-0.76 0.02-1.52 0.06-2.28 0.06h-64.5z"  /><path fill="#333333" d="M837.58 317.38c-0.76-0.02-1.52-0.06-2.28-0.06H658.46c-107.69 0-195.31 87.62-195.31 195.32s87.62 195.32 195.31 195.32H835.3c0.76 0 1.52-0.04 2.28-0.06 44.77-1.22 80.84-38 80.84-83.06v-224.4c-0.01-45.06-36.07-81.85-80.84-83.06z m0.44 307.46c0 0.55-0.17 1.07-0.45 1.5-0.49 0.74-1.32 1.23-2.28 1.23H658.46c-63.37 0-114.92-51.55-114.92-114.93s51.55-114.93 114.92-114.93H835.3a2.732 2.732 0 0 1 2.73 2.73v224.4z"  /><path fill="#333333" d="M664.27 512.64m-50.08 0a50.08 50.08 0 1 0 100.16 0 50.08 50.08 0 1 0-100.16 0Z"  /></svg>