<?xml version="1.0" standalone="no"?><!DOCTYPE svg PUBLIC "-//W3C//DTD SVG 1.1//EN" "http://www.w3.org/Graphics/SVG/1.1/DTD/svg11.dtd"><svg class="icon" width="64px" height="64.00px" viewBox="0 0 1024 1024" version="1.1" xmlns="http://www.w3.org/2000/svg"><path fill="#333333" d="M859.27 468.59H164.74c-19.13 0-34.65-15.51-34.65-34.65s15.51-34.65 34.65-34.65h694.52c19.14 0 34.65 15.51 34.65 34.65s-15.5 34.65-34.64 34.65zM533.79 673.33h-43.58c-19.13 0-34.65-15.51-34.65-34.65s15.51-34.65 34.65-34.65h43.58c19.13 0 34.65 15.51 34.65 34.65s-15.51 34.65-34.65 34.65zM336.19 673.33h-43.58c-19.13 0-34.65-15.51-34.65-34.65s15.51-34.65 34.65-34.65h43.58c19.13 0 34.65 15.51 34.65 34.65s-15.52 34.65-34.65 34.65zM731.4 673.33h-43.58c-19.13 0-34.65-15.51-34.65-34.65s15.51-34.65 34.65-34.65h43.58c19.13 0 34.65 15.51 34.65 34.65s-15.51 34.65-34.65 34.65z"  /><path fill="#333333" d="M818.49 873.43H205.51c-56.52 0-102.51-45.99-102.51-102.52V302.2c0-56.52 45.99-102.51 102.51-102.51h612.98c56.53 0 102.51 45.99 102.51 102.51v468.71c0.01 56.53-45.98 102.52-102.51 102.52zM205.51 268.98c-18.32 0-33.22 14.9-33.22 33.22v468.71c0 18.32 14.9 33.22 33.22 33.22h612.98c18.32 0 33.22-14.91 33.22-33.22V302.2c0-18.32-14.9-33.22-33.22-33.22H205.51z"  /><path fill="#333333" d="M320.21 317.28c-19.13 0-34.65-15.51-34.65-34.65v-96.98c0-19.13 15.51-34.65 34.65-34.65s34.65 15.51 34.65 34.65v96.98c0 19.14-15.51 34.65-34.65 34.65zM703.8 317.28c-19.13 0-34.65-15.51-34.65-34.65v-96.98c0-19.13 15.51-34.65 34.65-34.65s34.65 15.51 34.65 34.65v96.98c0 19.14-15.52 34.65-34.65 34.65z"  /></svg>