<?xml version="1.0" standalone="no"?><!DOCTYPE svg PUBLIC "-//W3C//DTD SVG 1.1//EN" "http://www.w3.org/Graphics/SVG/1.1/DTD/svg11.dtd"><svg class="icon" width="64px" height="64.00px" viewBox="0 0 1024 1024" version="1.1" xmlns="http://www.w3.org/2000/svg"><path fill="#333333" d="M640.61 922H392.7c-76.34 0-138.44-62.1-138.44-138.44V382.15c0-76.33 62.1-138.43 138.44-138.43h247.9c76.33 0 138.43 62.1 138.43 138.43v401.41C779.04 859.9 716.94 922 640.61 922zM392.7 311.13c-39.17 0-71.03 31.86-71.03 71.02v401.41c0 39.17 31.86 71.03 71.03 71.03h247.9c39.16 0 71.02-31.86 71.02-71.03V382.15c0-39.16-31.86-71.02-71.02-71.02H392.7zM779.05 201.91H254.26c-18.62 0-33.7-15.09-33.7-33.7s15.09-33.7 33.7-33.7h524.78c18.62 0 33.7 15.09 33.7 33.7s-15.07 33.7-33.69 33.7z"  /><path fill="#333333" d="M567.15 171.41H467.7c-18.62 0-33.7-15.09-33.7-33.7s15.09-33.7 33.7-33.7h99.46c18.62 0 33.7 15.09 33.7 33.7s-15.09 33.7-33.71 33.7zM440.43 741.45c-18.62 0-33.7-15.09-33.7-33.7V457.98c0-18.62 15.09-33.7 33.7-33.7s33.7 15.09 33.7 33.7v249.77c0.01 18.62-15.08 33.7-33.7 33.7zM592.88 741.45c-18.62 0-33.7-15.09-33.7-33.7V457.98c0-18.62 15.09-33.7 33.7-33.7s33.7 15.09 33.7 33.7v249.77c0.01 18.62-15.08 33.7-33.7 33.7z"  /></svg>