<?xml version="1.0" standalone="no"?><!DOCTYPE svg PUBLIC "-//W3C//DTD SVG 1.1//EN" "http://www.w3.org/Graphics/SVG/1.1/DTD/svg11.dtd"><svg class="icon" width="64px" height="64.00px" viewBox="0 0 1024 1024" version="1.1" xmlns="http://www.w3.org/2000/svg"><path fill="#333333" d="M620.77 889H406.55c-68.19 0-131.73-36.68-165.82-95.74L133.62 607.74c-34.09-59.06-34.09-132.43-0.01-191.49l107.12-185.51C274.82 171.69 338.36 135 406.55 135h214.22c68.19 0 131.73 36.69 165.83 95.75l107.1 185.51c34.09 59.06 34.09 132.43 0.01 191.49L786.59 793.26C752.5 852.32 688.97 889 620.77 889zM406.55 198.19c-45.69 0-88.26 24.58-111.1 64.15L188.33 447.85c-22.84 39.57-22.84 88.73 0.01 128.3l107.1 185.52c22.85 39.57 65.42 64.15 111.11 64.15h214.22c45.69 0 88.26-24.58 111.11-64.15l107.11-185.52c22.84-39.57 22.84-88.73-0.01-128.3l-107.1-185.51c-22.85-39.57-65.42-64.15-111.11-64.15H406.55z"  /><path fill="#333333" d="M513.66 671.73c-56.88 0-109.89-30.6-138.32-79.86-28.45-49.26-28.45-110.47 0-159.73 28.45-49.26 81.45-79.86 138.32-79.86s109.88 30.6 138.32 79.86c28.45 49.27 28.45 110.47 0 159.73-28.43 49.26-81.44 79.86-138.32 79.86z m0-256.27c-34.38 0-66.42 18.5-83.61 48.27-17.18 29.77-17.18 66.76 0 96.54 17.2 29.77 49.23 48.27 83.61 48.27s66.42-18.5 83.61-48.27c17.18-29.78 17.18-66.76 0-96.54-17.19-29.77-49.23-48.27-83.61-48.27z"  /></svg>