<?xml version="1.0" standalone="no"?><!DOCTYPE svg PUBLIC "-//W3C//DTD SVG 1.1//EN" "http://www.w3.org/Graphics/SVG/1.1/DTD/svg11.dtd"><svg class="icon" width="64px" height="64.00px" viewBox="0 0 1024 1024" version="1.1" xmlns="http://www.w3.org/2000/svg"><path fill="#333333" d="M795.89 849.13H228.11c-68.98 0-125.11-56.12-125.11-125.11v-424.9C103 230.13 159.13 174 228.11 174h567.77C864.87 174 921 230.13 921 299.12v424.9c0 68.99-56.13 125.11-125.11 125.11zM228.11 237.35c-34.05 0-61.77 27.71-61.77 61.77v424.9c0 34.06 27.71 61.77 61.77 61.77h567.77c34.05 0 61.77-27.71 61.77-61.77v-424.9c0-34.06-27.71-61.77-61.77-61.77H228.11z"  /><path fill="#333333" d="M467.55 640.69c-13.33 0-26.67-3.51-38.83-10.53-24.33-14.04-38.85-39.19-38.85-67.28V460.25c0-28.08 14.52-53.24 38.85-67.27 24.31-14.04 53.36-14.04 77.68 0l88.88 51.32c24.32 14.04 38.84 39.19 38.84 67.27s-14.52 53.24-38.84 67.28l-88.88 51.31c-12.15 7.02-25.5 10.53-38.85 10.53z m0.05-194.86c-3.09 0-5.63 1.09-7.22 2.01-2.67 1.54-7.17 5.21-7.17 12.41v102.64c0 7.2 4.5 10.87 7.17 12.42 2.69 1.55 8.09 3.62 14.34-0.01l88.88-51.31c6.24-3.6 7.17-9.33 7.17-12.42s-0.93-8.82-7.17-12.41l-88.88-51.32c-2.55-1.48-4.97-2.01-7.12-2.01z"  /></svg>