<?xml version="1.0" standalone="no"?><!DOCTYPE svg PUBLIC "-//W3C//DTD SVG 1.1//EN" "http://www.w3.org/Graphics/SVG/1.1/DTD/svg11.dtd"><svg class="icon" width="64px" height="64.00px" viewBox="0 0 1024 1024" version="1.1" xmlns="http://www.w3.org/2000/svg"><path fill="#333333" d="M749.66 921.67H249.57c-70.77 0-128.34-58.03-128.34-129.35V468.77c0-37.06 15.8-72.39 43.35-96.93l271.87-242.16c36-32.07 90.3-32.07 126.31 0l271.87 242.16C862.2 396.38 878 431.71 878 468.77v323.55c0 71.33-57.57 129.35-128.34 129.35zM499.62 165.64c-8.31 0-16.62 2.95-23.25 8.85L204.5 416.65c-14.78 13.17-23.26 32.17-23.26 52.13v323.55c0 38.24 30.66 69.35 68.34 69.35h500.09c37.68 0 68.34-31.11 68.34-69.35V468.77c0-19.96-8.48-38.96-23.26-52.13L522.87 174.49a34.892 34.892 0 0 0-23.25-8.85z"  /><path fill="#333333" d="M584.33 744.09c-7.88 0-15.75-3.08-21.64-9.22l-63.01-65.58-63.37 64.57c-11.6 11.83-30.6 12-42.42 0.4-11.82-11.61-12-30.6-0.4-42.42l85.01-86.61a29.998 29.998 0 0 1 21.41-8.99h0.16c8.11 0.04 15.86 3.37 21.47 9.22l84.41 87.86c11.48 11.95 11.1 30.94-0.85 42.42-5.8 5.58-13.29 8.35-20.77 8.35z"  /></svg>