<?xml version="1.0" standalone="no"?><!DOCTYPE svg PUBLIC "-//W3C//DTD SVG 1.1//EN" "http://www.w3.org/Graphics/SVG/1.1/DTD/svg11.dtd"><svg class="icon" width="64px" height="64.00px" viewBox="0 0 1024 1024" version="1.1" xmlns="http://www.w3.org/2000/svg"><path fill="#333333" d="M704.38 904.15c-14.93 0-29.95-3.67-43.75-11.09l-139.96-75.23c-7.6-4.08-16.69-4.17-24.33-0.23l-141.32 72.64c-31.48 16.16-68.67 13.13-97.08-7.92-28.41-21.05-42.16-55.75-35.85-90.54l28.3-156.35a26.209 26.209 0 0 0-7.33-23.23L130.32 500.26c-25.1-24.92-33.71-61.24-22.47-94.78 11.24-33.53 40-57.33 75.04-62.09l157.45-21.41a26.168 26.168 0 0 0 19.81-14.12l71.64-141.83c15.8-31.3 47.29-50.65 82.31-50.65h0.87c35.36 0.32 66.89 20.32 82.25 52.18l69 143.13a26.149 26.149 0 0 0 19.56 14.49l157.02 24.29c34.96 5.42 63.26 29.74 73.88 63.46 10.62 33.74 1.35 69.89-24.21 94.35l-114.8 109.86a26.118 26.118 0 0 0-7.73 23.07l25.42 156.84c5.65 34.93-8.74 69.37-37.54 89.89-16.03 11.43-34.68 17.21-53.44 17.21z m-196.1-155.54c15.03 0 30.06 3.67 43.69 11.01l139.95 75.22c12.93 6.96 23.58 1.1 27.55-1.73 3.98-2.84 12.99-11 10.64-25.49l-25.42-156.84a92.243 92.243 0 0 1 27.29-81.4l114.78-109.85c10.61-10.15 8.34-22.09 6.87-26.74-1.47-4.66-6.45-15.75-20.95-17.99l-157-24.3c-30.01-4.65-55.81-23.74-69-51.1l-69-143.13c-6.37-13.22-18.43-14.75-23.32-14.79h-0.23c-5.03 0-16.83 1.47-23.33 14.35l-71.64 141.84a92.25 92.25 0 0 1-69.91 49.82L191.8 408.9c-14.52 1.97-19.71 12.96-21.26 17.59-1.55 4.64-4.04 16.52 6.37 26.87L289.64 565.3a92.284 92.284 0 0 1 25.78 81.89l-28.3 156.35c-2.61 14.43 6.24 22.76 10.16 25.67 3.94 2.91 14.48 8.95 27.51 2.25l141.32-72.64a92.188 92.188 0 0 1 42.17-10.21zM389.65 322.76h0.11-0.11z"  /><path fill="#333333" d="M515.52 586.13c-58.86 0-115.4-18.7-159.19-52.65-14.91-11.57-17.63-33.03-6.07-47.93 11.57-14.92 33.03-17.63 47.93-6.07 31.88 24.72 73.55 38.33 117.33 38.33 40.85 0 80.39-12.04 111.36-33.91 15.41-10.92 36.74-7.22 47.61 8.2 10.89 15.41 7.22 36.73-8.2 47.61-42.4 29.93-95.93 46.42-150.77 46.42z"  /></svg>