<?xml version="1.0" standalone="no"?><!DOCTYPE svg PUBLIC "-//W3C//DTD SVG 1.1//EN" "http://www.w3.org/Graphics/SVG/1.1/DTD/svg11.dtd"><svg class="icon" width="64px" height="64.00px" viewBox="0 0 1024 1024" version="1.1" xmlns="http://www.w3.org/2000/svg"><path fill="#333333" d="M800.44 920.9H222.7c-55.99 0-101.55-45.06-101.55-100.45V410.06c0-32.14 15.72-62.57 42.05-81.39l288.87-206.58c35.6-25.45 83.44-25.44 119.02 0l288.87 206.58c26.33 18.83 42.05 49.26 42.05 81.39v410.39c-0.01 55.4-45.57 100.45-101.57 100.45zM511.57 172.76c-6.63 0-13.26 2.03-18.92 6.08L203.78 385.42c-8.06 5.76-12.87 14.97-12.87 24.64v410.39c0 16.92 14.26 30.68 31.78 30.68h577.74c17.53 0 31.79-13.76 31.79-30.68V410.06c0-9.67-4.8-18.88-12.87-24.64L530.5 178.84a32.484 32.484 0 0 0-18.93-6.08z"  /><path fill="#333333" d="M511.57 744.17c-19.27 0-34.88-15.61-34.88-34.88V574.31c0-19.27 15.61-34.88 34.88-34.88 19.27 0 34.88 15.61 34.88 34.88v134.98c0 19.27-15.61 34.88-34.88 34.88z"  /></svg>