<?xml version="1.0" standalone="no"?><!DOCTYPE svg PUBLIC "-//W3C//DTD SVG 1.1//EN" "http://www.w3.org/Graphics/SVG/1.1/DTD/svg11.dtd"><svg class="icon" width="64px" height="64.00px" viewBox="0 0 1024 1024" version="1.1" xmlns="http://www.w3.org/2000/svg"><path fill="#333333" d="M887.19 920.9c-8.89 0-17.78-3.44-24.49-10.29L672.13 716.05c-13.25-13.53-13.02-35.23 0.5-48.49 13.54-13.22 35.24-13.02 48.49 0.5l190.57 194.56c13.25 13.53 13.02 35.23-0.5 48.49-6.68 6.54-15.34 9.79-24 9.79z"  /><path fill="#333333" d="M496.58 793.35c-190.32 0-345.17-154.85-345.17-345.17C151.41 257.85 306.26 103 496.58 103c190.33 0 345.18 154.85 345.18 345.18S686.92 793.35 496.58 793.35z m0-621.79c-152.53 0-276.61 124.09-276.61 276.62s124.08 276.61 276.61 276.61S773.2 600.71 773.2 448.18 649.11 171.56 496.58 171.56z"  /></svg>