<?xml version="1.0" standalone="no"?><!DOCTYPE svg PUBLIC "-//W3C//DTD SVG 1.1//EN" "http://www.w3.org/Graphics/SVG/1.1/DTD/svg11.dtd"><svg class="icon" width="64px" height="64.00px" viewBox="0 0 1024 1024" version="1.1" xmlns="http://www.w3.org/2000/svg"><path fill="#333333" d="M512 920.99c-225.52 0-409-183.47-409-408.99s183.47-409 409-409 409 183.48 409 409-183.48 408.99-409 408.99z m0-750.13c-188.1 0-341.13 153.03-341.13 341.14 0 188.1 153.03 341.13 341.13 341.13 188.11 0 341.14-153.03 341.14-341.13S700.1 170.86 512 170.86z"  /><path fill="#333333" d="M512 762.47c-18.74 0-33.93-15.19-33.93-33.93v-29.45c0-18.74 15.19-33.93 33.93-33.93s33.93 15.19 33.93 33.93v29.45c0 18.74-15.19 33.93-33.93 33.93zM512 603.65c-18.74 0-33.93-15.19-33.93-33.93V316.2c0-18.74 15.19-33.93 33.93-33.93s33.93 15.19 33.93 33.93v253.52c0 18.73-15.19 33.93-33.93 33.93z"  /></svg>