<?xml version="1.0" standalone="no"?><!DOCTYPE svg PUBLIC "-//W3C//DTD SVG 1.1//EN" "http://www.w3.org/Graphics/SVG/1.1/DTD/svg11.dtd"><svg class="icon" width="64px" height="64.00px" viewBox="0 0 1024 1024" version="1.1" xmlns="http://www.w3.org/2000/svg"><path fill="#333333" d="M267.24 895.85c-12.1 0-23.01-2.12-32.67-6.96-44.08-22.13-31.05-80.89-21.53-123.8 1.21-5.46 2.68-12.12 3.71-17.49-72.72-67.65-112.58-155.91-112.58-250.05C104.16 297.64 287.38 135 512.58 135S921 297.64 921 497.55c0 199.9-183.22 362.55-408.42 362.55-31.98 0-63.79-3.29-94.61-9.78-7.15 2.12-21.98 8.05-33.22 12.54-46.12 18.42-85.84 32.99-117.51 32.99z m245.34-693.71c-188.18 0-341.28 132.52-341.28 295.41 0 78.96 35.62 153.22 100.31 209.08 19.44 16.78 14.21 40.37 6.97 72.99-2.8 12.63-8.13 36.66-8.06 49.63 20.18-1.11 67.72-20.12 89.31-28.74 35.2-14.07 51.27-20.49 67.32-16.9 27.74 6.2 56.48 9.34 85.43 9.34 188.18 0 341.28-132.52 341.28-295.41 0-162.88-153.09-295.4-341.28-295.4z"  /><path fill="#333333" d="M311.17 515.44m-33.57 0a33.57 33.57 0 1 0 67.14 0 33.57 33.57 0 1 0-67.14 0Z"  /><path fill="#333333" d="M512.58 515.44m-33.57 0a33.57 33.57 0 1 0 67.14 0 33.57 33.57 0 1 0-67.14 0Z"  /><path fill="#333333" d="M713.99 515.44m-33.57 0a33.57 33.57 0 1 0 67.14 0 33.57 33.57 0 1 0-67.14 0Z"  /></svg>