<?xml version="1.0" standalone="no"?><!DOCTYPE svg PUBLIC "-//W3C//DTD SVG 1.1//EN" "http://www.w3.org/Graphics/SVG/1.1/DTD/svg11.dtd"><svg class="icon" width="64px" height="64.00px" viewBox="0 0 1024 1024" version="1.1" xmlns="http://www.w3.org/2000/svg"><path fill="#333333" d="M512 921.01c-225.52 0-409-183.48-409-409.01s183.48-409 409-409 409 183.48 409 409.01-183.48 409-409 409z m0-750.15c-188.1 0-341.14 153.03-341.14 341.14S323.9 853.15 512 853.15s341.14-153.03 341.14-341.14S700.1 170.86 512 170.86z"  /><path fill="#333333" d="M495.75 671.34c-5.82 0-11.71-1.5-17.08-4.63L337.05 584.1c-16.18-9.44-21.65-30.22-12.22-46.41 9.44-16.19 30.22-21.65 46.41-12.21l114.53 66.81 156.2-225.03c10.68-15.4 31.82-19.23 47.23-8.53 15.39 10.69 19.21 31.83 8.53 47.22l-174.09 250.8c-6.55 9.45-17.11 14.59-27.89 14.59z"  /></svg>