<?xml version="1.0" standalone="no"?><!DOCTYPE svg PUBLIC "-//W3C//DTD SVG 1.1//EN" "http://www.w3.org/Graphics/SVG/1.1/DTD/svg11.dtd"><svg class="icon" width="64px" height="64.00px" viewBox="0 0 1024 1024" version="1.1" xmlns="http://www.w3.org/2000/svg"><path fill="#333333" d="M512.65 520.43c-115.09 0-208.71-93.63-208.71-208.71S397.56 103 512.65 103s208.71 93.63 208.71 208.71-93.63 208.72-208.71 208.72z m0-362.97c-85.06 0-154.27 69.2-154.27 154.26s69.2 154.26 154.27 154.26 154.27-69.2 154.27-154.26-69.21-154.26-154.27-154.26zM758.62 921H266.67c-85.78 0-155.56-63.13-155.56-140.71 0-110.76 100.31-200.88 223.62-200.88h355.84c123.3 0 223.62 90.12 223.62 200.88C914.18 857.87 844.4 921 758.62 921z m-423.9-287.14c-93.28 0-169.18 65.69-169.18 146.43 0 47.57 45.36 86.26 101.12 86.26h491.96c55.76 0 101.12-38.69 101.12-86.26 0-80.74-75.89-146.43-169.18-146.43H334.72z" /></svg>