<?xml version="1.0" standalone="no"?><!DOCTYPE svg PUBLIC "-//W3C//DTD SVG 1.1//EN" "http://www.w3.org/Graphics/SVG/1.1/DTD/svg11.dtd"><svg class="icon" width="64px" height="64.00px" viewBox="0 0 1024 1024" version="1.1" xmlns="http://www.w3.org/2000/svg"><path fill="#333333" d="M715.14 921H308.47c-34.08 0-64.55-17.66-81.49-47.24-16.94-29.57-16.75-64.78 0.49-94.18l87.38-148.95c-65.43-56.87-103.7-139.72-103.7-227.06 0-94.56 45.33-184.75 121.26-241.29 77.22-57.49 176.09-74.15 271.27-45.66 93.08 27.86 165.69 99.79 194.24 192.4 37 119.97 2.01 243.1-89.16 321.67l87.35 148.89c17.24 29.4 17.43 64.61 0.49 94.18-16.92 29.58-47.38 47.24-81.46 47.24zM512.1 171.66c-50.01 0-98.27 15.56-138.7 45.65-59.5 44.3-93.63 112.18-93.63 186.26 0 75.11 36.68 145.94 98.14 189.46 15.31 10.75 19.89 31.94 10.31 48.15L286.66 814.3c-6.7 11.41-2.32 21.54-0.13 25.37 2.19 3.82 8.71 12.72 21.94 12.72h406.66c13.23 0 19.75-8.9 21.94-12.72 2.19-3.82 6.57-13.95-0.13-25.37l-101.6-173.2c-9.63-16.31-5.22-36.99 10.3-48.03 0.02-0.02 0.04-0.03 0.07-0.04 83.76-59.33 117.79-162.87 86.67-263.79-21.79-70.69-77.24-125.6-148.34-146.89-23.95-7.16-48.15-10.69-71.94-10.69zM338.15 648.94c0.08 0.06 0.15 0.11 0.22 0.16-0.07-0.06-0.15-0.11-0.22-0.16z m-9.06-42.56c-0.02 0.05-0.06 0.1-0.08 0.15l0.08-0.15z m365.38-0.08l0.09 0.15-0.09-0.15z"  /><path fill="#333333" d="M514.59 517.92c-61.47 0-97.53-44.24-109.16-70.39-7.69-17.31 0.1-37.59 17.41-45.28 17.21-7.65 37.33 0 45.14 17.08 1.62 3.36 15.41 29.98 46.61 29.98 30.5 0 39.62-26.29 39.71-26.56 5.99-17.97 25.43-27.69 43.38-21.7 17.98 5.99 27.69 25.42 21.7 43.4-9.09 27.28-41.4 73.47-104.79 73.47z"  /></svg>