<?xml version="1.0" standalone="no"?><!DOCTYPE svg PUBLIC "-//W3C//DTD SVG 1.1//EN" "http://www.w3.org/Graphics/SVG/1.1/DTD/svg11.dtd"><svg class="icon" width="64px" height="64.00px" viewBox="0 0 1024 1024" version="1.1" xmlns="http://www.w3.org/2000/svg"><path fill="#333333" d="M511.99 920.99c-225.52 0-408.99-183.47-408.99-409S286.47 103 511.99 103 921 286.47 921 511.99s-183.48 409-409.01 409z m0-750.13c-188.1 0-341.13 153.03-341.13 341.13s153.03 341.13 341.13 341.13c188.11 0 341.14-153.03 341.14-341.13S700.11 170.86 511.99 170.86z"  /><path fill="#333333" d="M481.65 616.12c18.74 0 33.93-15.19 33.93-33.93v-277.1c0-18.74-15.19-33.93-33.93-33.93-18.74 0-33.93 15.19-33.93 33.93v277.09c0 18.75 15.19 33.94 33.93 33.94z"  /><path fill="#333333" d="M481.66 616.13c4.4 0 8.85-0.86 13.14-2.66l170.86-71.89c17.27-7.27 25.39-27.16 18.13-44.44-7.28-17.28-27.19-25.39-44.43-18.11L468.5 550.91c-17.27 7.27-25.39 27.15-18.13 44.43 5.47 12.98 18.05 20.79 31.29 20.79z"  /></svg>