<?xml version="1.0" standalone="no"?><!DOCTYPE svg PUBLIC "-//W3C//DTD SVG 1.1//EN" "http://www.w3.org/Graphics/SVG/1.1/DTD/svg11.dtd"><svg class="icon" width="64px" height="64.00px" viewBox="0 0 1024 1024" version="1.1" xmlns="http://www.w3.org/2000/svg"><path fill="#333333" d="M512 921c-225.52 0-409-183.47-409-409 0-225.52 183.47-409 409-409s409 183.47 409 409-183.48 409-409 409z m0-750.14c-188.1 0-341.13 153.03-341.13 341.13 0 188.11 153.03 341.14 341.13 341.14 188.11 0 341.14-153.03 341.14-341.14 0-188.09-153.04-341.13-341.14-341.13z"  /><path fill="#333333" d="M511.66 630.23c-7.43 0-14.86-2.44-21.02-7.3l-96.03-75.81c-14.71-11.61-17.22-32.95-5.61-47.66 11.6-14.72 32.95-17.23 47.66-5.61l75.22 59.39 75.74-58.53c14.82-11.47 36.13-8.74 47.59 6.1 11.46 14.83 8.73 36.13-6.1 47.59l-96.71 74.74a33.788 33.788 0 0 1-20.74 7.09z"  /><path fill="#333333" d="M512 577.28c-18.74 0-33.93-15.19-33.93-33.93V270.18c0-18.74 15.19-33.93 33.93-33.93s33.93 15.19 33.93 33.93v273.17c0 18.74-15.19 33.93-33.93 33.93zM517.17 737.12c-114.04 0-162.36-18.98-167.49-21.14-17.27-7.28-25.37-27.18-18.09-44.45 7.28-17.27 27.19-25.35 44.45-18.09 0.03 0.01 41.34 15.82 141.13 15.82 93.22 0 126.33-13.8 128.47-14.73 16.27-8.36 36.32-2.31 45.21 13.8 9.05 16.41 3.09 37.05-13.32 46.1-6.87 3.78-46.89 22.69-160.36 22.69z"  /></svg>