<?xml version="1.0" standalone="no"?><!DOCTYPE svg PUBLIC "-//W3C//DTD SVG 1.1//EN" "http://www.w3.org/Graphics/SVG/1.1/DTD/svg11.dtd"><svg class="icon" width="64px" height="64.00px" viewBox="0 0 1024 1024" version="1.1" xmlns="http://www.w3.org/2000/svg"><path fill="#333333" d="M733.67 919.66H296.04c-82.06 0-148.83-61.6-148.83-137.32V567.07c0-26.69 14.33-51.01 38.33-65.02 26.03-15.2 58.5-15.46 84.73-0.64v-0.01l200.66 113.2c26.67 15.07 61.16 15.05 87.84 0l200.65-113.2c26.24-14.8 58.71-14.55 84.73 0.65 24 14.01 38.33 38.32 38.33 65.02v215.27c0.02 75.71-66.74 137.32-148.81 137.32zM228.6 559.23c-3.29 0-6.27 0.96-8.38 2.19-1.94 1.13-4.24 3.03-4.24 5.64v215.27c0 37.8 35.92 68.56 80.06 68.56h437.63c44.14 0 80.06-30.76 80.06-68.56V567.07c0-2.61-2.31-4.51-4.24-5.64-3.74-2.19-10.25-3.51-16.27-0.13L592.57 674.51c-47.93 27.02-107.47 27.03-155.41 0L236.49 561.29a15.965 15.965 0 0 0-7.89-2.06z"  /><path fill="#333333" d="M765.88 556.64h-68.77V205.48c0-18.31-17.95-33.21-40.01-33.21H372.61c-22.07 0-40.01 14.9-40.01 33.21v351.16h-68.77V205.48c0-56.23 48.8-101.98 108.78-101.98H657.1c59.98 0 108.78 45.74 108.78 101.98v351.16z"  /><path fill="#333333" d="M592.59 370.1H437.12c-18.99 0-34.38-15.39-34.38-34.38 0-18.99 15.4-34.38 34.38-34.38h155.47c18.99 0 34.38 15.39 34.38 34.38 0.01 18.99-15.39 34.38-34.38 34.38zM592.59 497.17H437.12c-18.99 0-34.38-15.39-34.38-34.38s15.4-34.38 34.38-34.38h155.47c18.99 0 34.38 15.39 34.38 34.38s-15.39 34.38-34.38 34.38z"  /></svg>