<?xml version="1.0" standalone="no"?><!DOCTYPE svg PUBLIC "-//W3C//DTD SVG 1.1//EN" "http://www.w3.org/Graphics/SVG/1.1/DTD/svg11.dtd"><svg class="icon" width="64px" height="64.00px" viewBox="0 0 1024 1024" version="1.1" xmlns="http://www.w3.org/2000/svg"><path fill="#333333" d="M646.53 441.37H165.15c-18.89 0-34.2-15.31-34.2-34.2s15.31-34.2 34.2-34.2h481.38c18.89 0 34.2 15.31 34.2 34.2s-15.31 34.2-34.2 34.2zM346.81 602.31H165.14c-18.89 0-34.2-15.31-34.2-34.2s15.31-34.2 34.2-34.2h181.67c18.89 0 34.2 15.31 34.2 34.2s-15.31 34.2-34.2 34.2z"  /><path fill="#333333" d="M784.86 838.41H239.14c-75.07 0-136.14-61.07-136.14-136.14V322.14C103 247.07 164.07 186 239.14 186h545.72C859.93 186 921 247.07 921 322.14v380.13c0 75.06-61.07 136.14-136.14 136.14zM239.14 254.4c-37.35 0-67.74 30.39-67.74 67.74v380.13c0 37.35 30.39 67.74 67.74 67.74h545.72c37.35 0 67.74-30.39 67.74-67.74V322.14c0-37.35-30.39-67.74-67.74-67.74H239.14z"  /></svg>