<?xml version="1.0" standalone="no"?><!DOCTYPE svg PUBLIC "-//W3C//DTD SVG 1.1//EN" "http://www.w3.org/Graphics/SVG/1.1/DTD/svg11.dtd"><svg class="icon" width="64px" height="64.00px" viewBox="0 0 1024 1024" version="1.1" xmlns="http://www.w3.org/2000/svg"><path fill="#333333" d="M919.64 602.92h-68.49v-36.61c0-187.38-152.45-339.83-339.83-339.83-187.39 0-339.84 152.45-339.84 339.83v29.54H103v-29.54C103 341.17 286.17 158 511.32 158s408.32 183.17 408.32 408.32v36.6z"  /><path fill="#333333" d="M180.67 866.21c-42.83 0-77.67-34.85-77.67-77.67V589.15h77.67c65.41 0 118.62 53.22 118.62 118.62v39.83c-0.01 65.39-53.22 118.61-118.62 118.61z m-9.18-208.58v130.9c0 5.06 4.12 9.19 9.18 9.19 27.64 0 50.13-22.48 50.13-50.13v-39.83c0-27.64-22.49-50.13-50.13-50.13h-9.18zM841.97 866.21c-65.41 0-118.62-53.22-118.62-118.62v-39.83c0-65.4 53.21-118.62 118.62-118.62h77.67v199.39c0 42.83-34.84 77.68-77.67 77.68z m0-208.58c-27.64 0-50.13 22.48-50.13 50.13v39.83c0 27.64 22.49 50.13 50.13 50.13 5.06 0 9.18-4.12 9.18-9.19v-130.9h-9.18z"  /></svg>