<?xml version="1.0" standalone="no"?><!DOCTYPE svg PUBLIC "-//W3C//DTD SVG 1.1//EN" "http://www.w3.org/Graphics/SVG/1.1/DTD/svg11.dtd"><svg class="icon" width="64px" height="64.00px" viewBox="0 0 1024 1024" version="1.1" xmlns="http://www.w3.org/2000/svg"><path fill="#333333" d="M788.12 844.9H235.87C162.6 844.9 103 785.29 103 712.02V311.87C103 238.6 162.6 179 235.87 179h552.26C861.39 179 921 238.6 921 311.87v400.15c0 73.27-59.61 132.88-132.88 132.88zM235.87 248.18c-35.12 0-63.69 28.57-63.69 63.69v400.15c0 35.12 28.57 63.7 63.69 63.7h552.26c35.12 0 63.7-28.58 63.7-63.7V311.87c0-35.12-28.58-63.69-63.7-63.69H235.87z"  /><path fill="#333333" d="M523.7 563.75c-118.27 0-230.35-110.72-235.06-115.44-13.51-13.51-13.51-35.41 0-48.91 13.51-13.51 35.39-13.51 48.9-0.02 1.61 1.59 97 95.18 186.16 95.18 89.46 0 185.21-94.25 186.17-95.2 13.55-13.47 35.43-13.43 48.91 0.08 13.48 13.51 13.48 35.37-0.02 48.87-4.71 4.72-116.79 115.44-235.06 115.44z"  /></svg>