<?xml version="1.0" standalone="no"?><!DOCTYPE svg PUBLIC "-//W3C//DTD SVG 1.1//EN" "http://www.w3.org/Graphics/SVG/1.1/DTD/svg11.dtd"><svg class="icon" width="64px" height="64.00px" viewBox="0 0 1024 1024" version="1.1" xmlns="http://www.w3.org/2000/svg"><path fill="#333333" d="M156.47 867c-6.14 0-12.38-1.06-18.48-3.27-21.44-7.73-35.18-27.47-34.99-50.25 0.92-111.43 37.89-476.37 474.78-494.23l-0.59-80.61c0-28.85 17.45-54.04 44.45-64.18 26.97-10.16 56.74-2.69 75.74 19.03l207.14 236.74c23.26 26.59 22.64 66.13-1.47 91.95L695.91 744.12c-19.34 20.74-48.88 27.43-75.3 17-26.38-10.4-43.43-35.45-43.43-63.8v-83.41c-61.4 6.1-222.2 40.57-379.5 233.28C187.2 860.03 172.15 867 156.47 867z m489.09-628.17l0.48 80.83c0 36.85-28.74 66.88-65.45 68.37-326.46 13.36-394.95 244.08-406.64 381.08C338.4 586.57 504.66 551.91 571.1 545.6c19.2-1.79 38.27 4.56 52.48 17.48 14.28 12.98 22.46 31.5 22.46 50.83v83.41L852.71 475.2 645.56 238.83z" /></svg>